{"title":"Hammer.of.the.Gods.2013.LIMITED.1080p.BluRay.x264-LOST","uid":12559246,"size":7412086260,"categoryP":"video","categoryS":"hd___movies","magnet":"?xt=urn:btih:2053d75b50764ab853e0351252198da5c5cdca99&amp;dn=Hammer.of.the.Gods.2013.LIMITED.1080p.BluRay.x264-LOST&amp;tr=udp%3A%2F%2Ftracker.leechers-paradise.org%3A6969&amp;tr=udp%3A%2F%2Fzer0day.ch%3A1337&amp;tr=udp%3A%2F%2Fopen.demonii.com%3A1337&amp;tr=udp%3A%2F%2Ftracker.coppersurfer.tk%3A6969&amp;tr=udp%3A%2F%2Fexodus.desync.com%3A6969","seeders":0,"leechers":0,"uploader":null,"files":3,"time":1444682086,"description":"Video\r\nID                                       : 1\r\nFormat                                   : AVC\r\nFormat/Info                              : Advanced Video Codec\r\nFormat profile                           :   \r\nFormat settings, CABAC                   : Yes\r\nFormat settings, ReFrames                : 5 frames\r\nCodec ID                                 : V_MPEG4/ISO/AVC\r\nDuration                                 : 1h 38mn\r\nBit rate                                 : 8 490 Kbps\r\nWidth                                    : 1 920 pixels\r\nHeight                                   : 800 pixels\r\nDisplay aspect ratio                     : 2.40:1\r\nFrame rate mode                          : Constant\r\nFrame rate                               : 23.976 fps\r\nColor space                              : YUV\r\nChroma subsampling                       : 4:2:0\r\nBit depth                                : 8 bits\r\nScan type                                : Progressive\r\nBits/(Pixel*Frame)                       : 0.231\r\nStream size                              : 5.72 GiB (83%)\r\nWriting library                          : x264 core 135 r2345 f0c1c53\r\nEncoding settings                        : cabac=1 / ref=5 / deblock=1:-3:-3 / analyse=0x3:0x113 / me=umh / subme=8 / psy=1 / psy_rd=1.00:0.00 / mixed_ref=1 / me_range=16 / chroma_me=1 / trellis=1 / 8x8dct=1 / cqm=0 / deadzone=21,11 / fast_pskip=1 / chroma_qp_offset=-2 / threads=12 / lookahead_threads=2 / sliced_threads=0 / nr=0 / decimate=1 / interlaced=0 / bluray_compat=0 / constrained_intra=0 / bframes=3 / b_pyramid=2 / b_adapt=2 / b_bias=0 / direct=3 / weightb=1 / open_gop=0 / weightp=2 / keyint=240 / keyint_min=24 / scenecut=40 / intra_refresh=0 / rc_lookahead=50 / rc=2pass / mbtree=1 / bitrate=8490 / ratetol=1.0 / qcomp=0.60 / qpmin=0 / qpmax=69 / qpstep=4 / cplxblur=20.0 / qblur=0.5 / ip_ratio=1.40 / aq=1:1.00\r\nLanguage                                 : English\r\nDefault                                  : Yes\r\nForced                                   : No\r\n\r\nAudio\r\nID                                       : 2\r\nFormat                                   : DTS\r\nFormat/Info                              : Digital Theater Systems\r\nMode                                     : 16\r\nFormat settings, Endianness              : Big\r\nCodec ID                                 : A_DTS\r\nDuration                                 : 1h 38mn\r\nBit rate mode                            : Constant\r\nBit rate                                 : 1 509 Kbps\r\nChannel(s)                               : 6 channels\r\nChannel positions                        : Front: L C R, Side: L R, LFE\r\nSampling rate                            : 48.0 KHz\r\nBit depth                                : 24 bits\r\nCompression mode                         : Lossy\r\nStream size                              : 1.04 GiB (15%)\r\nTitle                                    : English DTS 1509kbps\r\nLanguage                                 : English\r\nDefault                                  : Yes\r\nForced                                   : No\r\n\r\nMenu\r\n00:00:00.000                             : en:00:00:00.000\r\n00:06:49.492                             : en:00:06:49.492\r\n00:13:58.463                             : en:00:13:58.463\r\n00:21:47.556                             : en:00:21:47.556\r\n00:28:49.519                             : en:00:28:49.519\r\n00:35:23.496                             : en:00:35:23.496\r\n00:39:41.462                             : en:00:39:41.462\r\n00:45:46.994                             : en:00:45:46.994\r\n00:51:43.559                             : en:00:51:43.559\r\n00:58:29.423                             : en:00:58:29.423\r\n01:06:02.876                             : en:01:06:02.876\r\n01:11:48.304                             : en:01:11:48.304\r\n01:18:12.980                             : en:01:18:12.980\r\n01:24:07.501                             : en:01:24:07.501\r\n01:29:57.517                             : en:01:29:57.517\r\n01:35:10.204                             : en:01:35:10.204","torrent":{"xt":"urn:btih:2053d75b50764ab853e0351252198da5c5cdca99","amp;dn":"Hammer.of.the.Gods.2013.LIMITED.1080p.BluRay.x264-LOST","amp;tr":["udp%3A%2F%2Ftracker.leechers-paradise.org%3A6969","udp%3A%2F%2Fzer0day.ch%3A1337","udp%3A%2F%2Fopen.demonii.com%3A1337","udp%3A%2F%2Ftracker.coppersurfer.tk%3A6969","udp%3A%2F%2Fexodus.desync.com%3A6969"],"infoHash":"2053d75b50764ab853e0351252198da5c5cdca99","infoHashBuffer":{"type":"Buffer","data":[32,83,215,91,80,118,74,184,83,224,53,18,82,25,141,165,197,205,202,153]},"announce":[],"urlList":[]}}